<svg class="items plus" id="DARKERLIGHT" xmlns="http://www.w3.org/2000/svg" viewBox="0 0 51.95 50.48"><g id="Layer_2-2"><g id="LOGO"><g id="LIGHT"><g id="DARKER-LIGHT"><g id="inside"><path d="M48.09,24.61l.72-.04c1.63-.08,2.85-1.58,2.55-3.19-.03-.18-.07-.36-.1-.53-.33-1.58-1.98-2.52-3.51-2.02l-.68,.22c-1.33,.43-2.09,1.8-1.82,3.18,0,.04,.01,.08,.02,.11,.26,1.36,1.45,2.33,2.83,2.26Z" fill="#cfebec"/><path d="M26.44,3.28v.71c0,1.38,1.03,2.51,2.39,2.71,.04,0,.09,.01,.13,.02,1.39,.21,2.73-.62,3.09-1.99l.18-.69c.42-1.56-.6-3.16-2.19-3.4-.18-.03-.37-.05-.55-.08-1.62-.21-3.06,1.08-3.06,2.71Z" fill="#cfebec"/><path d="M36.27,42.71c-.79,.48-1.61,.91-2.47,1.28-1.26,.54-1.94,1.9-1.59,3.22l.19,.69c.43,1.59,2.16,2.46,3.68,1.82,1.14-.48,2.23-1.04,3.28-1.67,1.06-.64,2.07-1.35,3.03-2.13,1.26-1.03,1.38-2.91,.23-4.07l-.51-.51c-1-1-2.59-1.05-3.69-.15-.68,.55-1.39,1.05-2.14,1.51Z" fill="#cfebec"/><path d="M3.42,25.86c-1.7-.09-3.05,1.37-2.86,3.05,.13,1.21,.35,2.39,.65,3.54,.31,1.22,.71,2.4,1.19,3.54,.64,1.53,2.46,2.16,3.9,1.33l.62-.36c1.2-.69,1.67-2.17,1.14-3.44-.36-.86-.65-1.75-.88-2.66-.22-.84-.37-1.7-.48-2.57-.15-1.31-1.24-2.31-2.55-2.39l-.72-.04Z" fill="#cfebec"/></g><g id="around"><path d="M4.93,38.24c-.35,0-.7-.06-1.04-.17-.9-.3-1.63-.98-2-1.86-.49-1.17-.9-2.38-1.22-3.61-.3-1.18-.53-2.4-.66-3.62-.11-.97,.21-1.93,.88-2.64,.66-.7,1.6-1.07,2.55-1.02l.72,.04c1.59,.09,2.88,1.29,3.06,2.87,.1,.84,.25,1.69,.46,2.5,.22,.88,.51,1.75,.86,2.59,.64,1.53,.05,3.3-1.37,4.12l-.62,.36c-.5,.29-1.07,.44-1.63,.44Zm-1.66-11.83c-.6,0-1.17,.24-1.58,.68-.45,.47-.66,1.12-.59,1.77,.13,1.17,.34,2.34,.64,3.47,.3,1.18,.69,2.34,1.17,3.46,.25,.59,.74,1.05,1.34,1.25,.6,.2,1.23,.14,1.78-.18l.62-.36c.95-.55,1.34-1.74,.91-2.77-.37-.89-.68-1.81-.91-2.74-.22-.86-.39-1.75-.49-2.64-.12-1.05-.98-1.85-2.04-1.91l-.72-.04s-.08,0-.12,0Z" fill="#5ed1e0"/><path d="M35.03,50.48c-.49,0-.98-.11-1.43-.33-.86-.42-1.49-1.19-1.73-2.1l-.19-.69c-.42-1.58,.38-3.21,1.9-3.86,.82-.35,1.63-.77,2.4-1.24h0c.72-.44,1.42-.93,2.08-1.47,1.33-1.08,3.23-1,4.42,.19l.51,.51c.65,.65,1,1.55,.95,2.47-.05,.93-.49,1.81-1.22,2.4-.98,.8-2.02,1.54-3.09,2.18-1.07,.65-2.2,1.22-3.35,1.71-.4,.17-.82,.25-1.25,.25Zm1.52-7.31c-.82,.5-1.67,.94-2.54,1.31-1.02,.44-1.56,1.53-1.28,2.58l.19,.69c.16,.62,.59,1.13,1.16,1.41,.56,.28,1.21,.3,1.78,.05,1.11-.47,2.19-1.02,3.21-1.64,1.03-.62,2.02-1.32,2.96-2.09,.49-.4,.79-.99,.82-1.62,.03-.62-.19-1.21-.63-1.64l-.51-.51c-.79-.79-2.07-.84-2.97-.11-.7,.57-1.44,1.09-2.2,1.55Z" fill="#5ed1e0"/><path d="M29.39,7.29c-.16,0-.33-.01-.5-.04l-.13-.02c-1.65-.23-2.86-1.6-2.86-3.24v-.71c0-.95,.41-1.85,1.12-2.47,.7-.62,1.63-.9,2.55-.78,.19,.02,.38,.05,.56,.08,.9,.14,1.71,.66,2.21,1.43,.51,.78,.67,1.75,.42,2.65l-.18,.69c-.39,1.44-1.71,2.42-3.2,2.42Zm-.23-6.21c-.52,0-1.02,.19-1.42,.54-.48,.42-.75,1.02-.75,1.66v.71c0,1.1,.81,2.01,1.92,2.17l.14,.02c1.13,.17,2.2-.52,2.49-1.59l.18-.69c.16-.6,.06-1.25-.28-1.78-.34-.52-.86-.86-1.47-.95-.18-.03-.36-.05-.54-.08-.09-.01-.18-.02-.27-.02Z" fill="#5ed1e0"/><path d="M47.95,25.16c-1.58,0-2.91-1.11-3.22-2.71l-.02-.11c-.33-1.65,.62-3.29,2.19-3.8l.68-.22c.89-.29,1.86-.18,2.67,.29,.8,.46,1.36,1.24,1.54,2.14,.04,.18,.07,.36,.11,.54,.17,.91-.07,1.85-.65,2.58-.59,.74-1.47,1.2-2.41,1.25l-.72,.04c-.06,0-.12,0-.17,0Zm.64-5.91c-.23,0-.46,.04-.68,.11l-.68,.22c-1.05,.34-1.68,1.44-1.46,2.56l.02,.12c.21,1.11,1.17,1.88,2.27,1.82l.72-.04c.63-.03,1.22-.34,1.62-.84,.39-.49,.54-1.1,.43-1.71-.03-.17-.07-.35-.1-.52-.12-.6-.49-1.11-1.02-1.42-.34-.2-.73-.3-1.11-.3Z" fill="#5ed1e0"/></g></g></g></g></g></svg>
