<svg class="items minus" id="INNERLIGHT" xmlns="http://www.w3.org/2000/svg" viewBox="0 0 30.81 30.81"><g id="Layer_2-2"><g id="LOGO"><g id="LIGHT"><g id="MAIN"><circle cx="15.41" cy="15.41" r="15.41" fill="#cfebec"/></g><g id="INNER-CIRCLE"><path d="M22.59,16.19c-.02,.23-.03,.46-.08,.69,0,.09-.02,.19-.03,.28-.05,.25-.09,.49-.15,.72-.05,.22-.11,.43-.17,.65-.05,.19-.26,.29-.45,.22l-1.34-.51c-.11-.03-.17-.12-.19-.22-.8,1.53-2.34,2.62-4.18,2.79-1.45,.12-2.81-.35-3.84-1.23-.02,.03-.03,.06-.06,.09l-.93,.82c-.2,.17-.51,.15-.66-.06-.11-.14-.2-.28-.31-.43-.19-.28-.35-.57-.52-.86-.09-.17-.17-.34-.26-.52-.09-.22,0-.48,.22-.59l1.03-.52c-.19-.45-.31-.94-.35-1.47-.2-2.36,1.17-4.47,3.24-5.32l-.32-1.28c-.06-.25,.09-.49,.34-.54l.4-.08c.29-.06,.57-.11,.86-.14l.39-.05c.26-.03,.49,.17,.48,.43l-.02,1.26c2.64,.06,4.86,2.08,5.1,4.8,.02,.2,.02,.4,0,.59,.03-.02,.08-.02,.11-.02l1.39,.14c.19,.02,.32,.17,.31,.35Z" fill="#fff"/><circle cx="15.6" cy="15.72" r="4.37" fill="#cfebec"/><circle cx="15.6" cy="15.72" r="3.34" fill="#fff"/></g></g></g></g></svg>
