<svg class="items minus" id="INNERCIRCLE" xmlns="http://www.w3.org/2000/svg" viewBox="0 0 58.67 58.69"><g id="Layer_2-2"><g id="LOGO"><g id="INNERCIRCLE"><path d="M26.48,7.32l-.93-7.07c-3.05,.39-5.95,1.25-8.63,2.5l3.36,6.53c1.97-.98,4.06-1.63,6.2-1.96Z" fill="#5ed1e0"/><path d="M50.68,37.27l6.06,2.54c.47-1.23,.86-2.5,1.16-3.8l-6.41-1.44c-.22,.95-.49,1.84-.81,2.7Z" fill="#5ed1e0"/><path d="M16.13,11.93l-4.52-5.96c-3.83,2.91-6.92,6.75-8.95,11.17l7.11,2.99c1.44-3.18,3.63-6,6.36-8.2Z" fill="#5ed1e0"/><path d="M50.78,21.9l6.32-2.02c-.98-2.87-2.38-5.54-4.14-7.94l-5.29,4.11c1.32,1.77,2.37,3.73,3.11,5.85Z" fill="#5ed1e0"/><path d="M49.91,22.78h0c-.77-2.38-1.93-4.56-3.45-6.49h-.01c-3.8-4.92-9.5-7.88-15.65-8.12h0c-1.27-.06-2.49,0-3.59,.17h-.02s0,0,0,0c-2.39,.3-4.7,1.03-6.87,2.17h0c-1.04,.54-2.07,1.2-3.06,1.95-2.93,2.24-5.23,5.21-6.67,8.6h0c-.98,2.29-1.54,4.71-1.68,7.18h0c-.02,.43-.03,.89-.03,1.33,.02,4.6,1.48,8.98,4.21,12.66h0c1.47,2,3.28,3.72,5.38,5.1h0c2.1,1.38,4.39,2.36,6.82,2.91h.02c1.47,.34,2.99,.51,4.5,.52,3.41,0,6.88-.83,9.93-2.47h.01c4.4-2.37,7.85-6.24,9.72-10.92h0c.45-1.12,.8-2.29,1.08-3.57,.3-1.49,.45-2.98,.44-4.46-.01-2.24-.37-4.45-1.06-6.56Zm-20.57,6.95v-1.11s1.1-.02,1.1-.02v1.14s-1.1,0-1.1,0Z" fill="#5ed1e0"/><path d="M29.78,51.88c-1.41-.01-2.82-.16-4.2-.43l-1.49,6.77c1.7,.31,3.45,.48,5.24,.48,4.85,0,9.41-1.18,13.44-3.26l-3.04-5.9c-3.08,1.56-6.48,2.37-9.96,2.34Z" fill="#5ed1e0"/><path d="M40.72,49.01l3.03,5.89c5.59-3.16,10.04-8.1,12.57-14.05l-6.06-2.54c-1.94,4.52-5.3,8.29-9.54,10.7Z" fill="#5ed1e0"/><path d="M18.32,48.58l-3.83,6.08c2.6,1.53,5.47,2.67,8.5,3.34l1.49-6.8c-2.18-.55-4.25-1.43-6.17-2.62Z" fill="#5ed1e0"/><path d="M7.74,29.58c0-.28,0-.56,.01-.83L.02,28.41c0,.31-.02,.62-.02,.93,0,6.65,2.21,12.79,5.94,17.71l5.91-4.58c-2.67-3.77-4.08-8.21-4.11-12.88Z" fill="#5ed1e0"/><path d="M46.99,15.17l5.3-4.11C47.37,4.9,40.02,.76,31.69,.1l-.3,6.99c6.09,.39,11.71,3.31,15.6,8.08Z" fill="#5ed1e0"/><path d="M52.08,29.33c0,1.37-.11,2.76-.36,4.15l6.41,1.44c.35-1.81,.54-3.68,.54-5.59,0-2.92-.43-5.73-1.22-8.39l-6.32,2.01c.62,2.06,.94,4.2,.95,6.37Z" fill="#5ed1e0"/><path d="M19.3,9.8l-3.37-6.55c-1.19,.61-2.33,1.3-3.42,2.07l.76,1,3.75,4.94c.75-.54,1.51-1.03,2.29-1.46Z" fill="#5ed1e0"/><path d="M7.82,27.64c.17-2.23,.68-4.4,1.52-6.49l-7.12-2.99C1.04,21.01,.3,24.08,.08,27.3l7.74,.34Z" fill="#5ed1e0"/><path d="M30.58,.03c-.41-.02-.82-.03-1.24-.03-.9,0-1.79,.05-2.67,.13l.92,7.04c.84-.1,1.72-.15,2.69-.13L30.58,.03Z" fill="#5ed1e0"/><path d="M13.55,54.07l3.84-6.11c-1.86-1.29-3.5-2.84-4.87-4.61l-5.89,4.56c1.96,2.4,4.3,4.47,6.92,6.15Z" fill="#5ed1e0"/></g></g></g></svg>
